<?xml version="1.0" standalone="no"?>
<!DOCTYPE svg PUBLIC "-//W3C//DTD SVG 20010904//EN"
 "http://www.w3.org/TR/2001/REC-SVG-20010904/DTD/svg10.dtd">
<svg version="1.0" xmlns="http://www.w3.org/2000/svg"
 width="1024.000000pt" height="1024.000000pt" viewBox="0 0 1024.000000 1024.000000"
 preserveAspectRatio="xMidYMid meet">

<g transform="translate(0.000000,1024.000000) scale(0.100000,-0.100000)"
fill="#000000" stroke="none">
<path d="M2259 6682 c-72 -37 -111 -93 -117 -167 -6 -77 17 -133 79 -189 l49
-44 0 -111 0 -111 -228 0 c-126 0 -255 -5 -288 -11 -99 -18 -193 -69 -263
-144 -86 -92 -123 -173 -136 -302 -5 -49 -11 -63 -23 -63 -81 0 -161 -64 -186
-150 -21 -69 -21 -238 -1 -306 23 -79 102 -144 174 -144 l28 0 7 -89 c7 -97
31 -178 72 -248 38 -65 127 -148 195 -182 l60 -30 -68 -33 c-70 -34 -192 -145
-225 -203 l-16 -30 994 0 c547 0 994 2 994 6 0 3 -13 25 -28 50 -41 63 -132
143 -207 180 l-65 32 58 34 c78 47 155 125 192 195 44 81 51 109 59 218 l6 95
48 7 c67 9 120 46 148 105 22 44 24 61 24 193 0 132 -2 149 -23 188 -30 56
-92 100 -153 108 l-49 7 0 46 c-1 215 -177 420 -394 460 -33 6 -167 11 -298
11 l-238 0 0 114 0 114 33 21 c139 85 125 301 -25 375 -69 34 -121 34 -189 -2z
m751 -861 c61 -32 97 -67 128 -126 l27 -50 3 -414 c3 -365 1 -419 -14 -464
-19 -59 -80 -129 -139 -160 -40 -22 -44 -22 -650 -22 l-610 0 -54 30 c-56 31
-106 88 -128 148 -8 23 -12 157 -12 452 l-1 420 24 50 c29 63 104 131 165 150
38 11 148 14 631 12 l585 -2 45 -24z"/>
<path d="M1924 5531 c-78 -47 -106 -150 -62 -226 13 -22 39 -50 58 -63 30 -20
44 -23 97 -20 105 7 158 61 158 163 0 71 -17 103 -75 143 -43 29 -131 31 -176
3z"/>
<path d="M2629 5527 c-108 -73 -107 -211 1 -285 47 -32 139 -28 189 7 37 27
70 91 71 136 0 45 -40 116 -79 142 -48 32 -135 32 -182 0z"/>
<path d="M2132 4963 c-7 -3 -19 -18 -28 -35 -19 -37 -5 -80 32 -97 31 -14 412
-15 447 -2 22 9 39 34 42 66 3 22 -26 63 -47 69 -27 7 -427 7 -446 -1z"/>
<path d="M6600 5510 l0 -70 70 0 70 0 0 70 0 70 -70 0 -70 0 0 -70z"/>
<path d="M6840 5170 l0 -410 75 0 75 0 0 410 0 410 -75 0 -75 0 0 -410z"/>
<path d="M6030 5161 l0 -401 85 0 85 0 0 144 0 144 93 4 c79 3 100 8 140 31
89 53 133 162 109 275 -17 79 -55 130 -126 167 -57 28 -64 30 -222 33 l-164 4
0 -401z m302 247 c56 -28 65 -161 14 -205 -22 -18 -39 -23 -87 -23 l-59 0 0
124 0 125 58 -6 c31 -3 65 -10 74 -15z"/>
<path d="M8209 5545 c-95 -30 -184 -139 -209 -256 -19 -85 -8 -259 19 -332 49
-128 127 -191 254 -207 69 -8 89 -16 165 -63 48 -29 92 -56 98 -60 11 -6 124
79 124 93 0 3 -26 20 -58 38 -31 18 -63 37 -71 41 -12 8 -8 17 19 47 77 89
113 239 92 386 -21 146 -91 256 -191 301 -60 26 -179 32 -242 12z m190 -142
c14 -10 37 -41 51 -69 23 -45 25 -60 25 -184 0 -122 -2 -140 -24 -183 -30 -62
-70 -87 -138 -87 -44 0 -58 5 -87 30 -54 48 -71 105 -71 240 0 157 29 235 99
266 40 18 111 12 145 -13z"/>
<path d="M3998 5358 c-36 -106 -98 -284 -137 -395 l-70 -203 88 0 88 0 24 90
23 91 130 -3 131 -3 23 -87 24 -88 89 0 88 0 -90 263 c-50 144 -111 322 -136
395 l-46 132 -81 0 -82 0 -66 -192z m192 -123 c23 -82 45 -156 47 -162 4 -10
-18 -13 -92 -13 -74 0 -96 3 -92 13 2 6 24 81 47 165 24 84 44 151 45 150 2
-2 22 -70 45 -153z"/>
<path d="M8905 5538 c-14 -38 -254 -737 -260 -756 -7 -23 -6 -23 82 -20 l88 3
24 88 24 87 127 0 127 0 25 -87 25 -88 86 -3 c48 -1 87 1 87 6 0 4 -57 172
-126 373 -69 200 -128 374 -131 387 -5 21 -10 22 -89 22 -59 0 -86 -4 -89 -12z
m128 -295 c21 -76 40 -148 43 -160 6 -23 5 -23 -88 -23 l-94 0 45 160 c25 88
48 160 51 160 3 0 22 -62 43 -137z"/>
<path d="M5197 5487 l-59 -10 4 -69 3 -68 -37 0 -38 0 0 -49 c0 -50 0 -50 35
-53 l35 -3 2 -185 c3 -164 5 -190 24 -224 27 -53 73 -76 149 -76 100 0 105 4
105 66 l0 54 -39 -6 c-34 -5 -43 -3 -65 19 -26 26 -26 27 -26 192 l0 165 68 0
69 0 0 50 1 50 -69 0 -69 0 0 80 c0 90 8 85 -93 67z"/>
<path d="M7733 5487 l-63 -10 0 -68 0 -69 -35 0 -35 0 0 -50 0 -50 34 0 34 0
4 -192 c3 -172 5 -197 23 -228 28 -48 76 -70 150 -70 99 0 105 4 105 65 l0 53
-39 -5 c-33 -5 -44 -1 -65 20 -26 26 -26 27 -26 192 l0 165 65 0 65 0 0 50 0
50 -65 0 -65 0 0 80 c0 58 -3 80 -12 79 -7 -1 -41 -6 -75 -12z"/>
<path d="M5585 5331 c-52 -24 -98 -74 -127 -136 -33 -73 -33 -217 1 -293 28
-62 93 -124 149 -140 136 -41 268 12 329 132 34 67 43 187 19 268 -19 66 -83
143 -141 169 -55 25 -175 25 -230 0z m184 -116 c37 -32 56 -112 48 -202 -10
-103 -48 -153 -117 -153 -81 0 -115 56 -115 190 0 102 14 144 57 174 35 25 91
20 127 -9z"/>
<path d="M7189 5322 c-59 -30 -111 -95 -129 -160 -16 -57 -12 -182 7 -238 21
-63 104 -148 159 -163 103 -29 224 -1 286 65 100 107 103 329 5 440 -56 64
-103 84 -198 84 -65 0 -85 -4 -130 -28z m189 -98 c42 -29 56 -72 56 -174 0
-102 -14 -145 -56 -174 -35 -25 -91 -20 -127 10 -37 30 -51 77 -51 164 0 130
36 190 112 190 24 0 54 -7 66 -16z"/>
<path d="M4513 5118 c5 -247 12 -279 64 -330 31 -30 40 -33 109 -36 90 -5 126
8 160 57 l26 36 -4 -42 -4 -43 73 0 73 0 0 290 0 290 -75 0 -75 0 0 -185 c0
-204 -6 -235 -56 -274 -35 -27 -86 -23 -118 9 -20 19 -21 34 -24 235 l-3 215
-76 0 -75 0 5 -222z"/>
<path d="M6600 5050 l0 -290 70 0 70 0 0 290 0 290 -70 0 -70 0 0 -290z"/>
</g>
</svg>
